<?xml version="1.0" encoding="UTF-8" standalone="no"?>
<!-- Created with Inkscape (http://www.inkscape.org/) -->

<svg
   xmlns:dc="http://purl.org/dc/elements/1.1/"
   xmlns:cc="http://creativecommons.org/ns#"
   xmlns:rdf="http://www.w3.org/1999/02/22-rdf-syntax-ns#"
   xmlns:svg="http://www.w3.org/2000/svg"
   xmlns="http://www.w3.org/2000/svg"
   xmlns:sodipodi="http://sodipodi.sourceforge.net/DTD/sodipodi-0.dtd"
   xmlns:inkscape="http://www.inkscape.org/namespaces/inkscape"
   id="svg2"
   version="1.1"
   inkscape:version="0.91 r13725"
   width="320"
   height="320"
   viewBox="0 0 320 320"
   sodipodi:docname="org.gnome.clocks.svg">
  <metadata
     id="metadata8">
    <rdf:RDF>
      <cc:Work
         rdf:about="">
        <dc:format>image/svg+xml</dc:format>
        <dc:type
           rdf:resource="http://purl.org/dc/dcmitype/StillImage" />
        <dc:title></dc:title>
      </cc:Work>
    </rdf:RDF>
  </metadata>
  <defs
     id="defs6" />
  <sodipodi:namedview
     pagecolor="#ffffff"
     bordercolor="#666666"
     borderopacity="1"
     objecttolerance="10"
     gridtolerance="10"
     guidetolerance="10"
     inkscape:pageopacity="0"
     inkscape:pageshadow="2"
     inkscape:window-width="640"
     inkscape:window-height="480"
     id="namedview4"
     showgrid="false"
     inkscape:zoom="0.52149125"
     inkscape:cx="135.80434"
     inkscape:cy="147.6348"
     inkscape:window-x="0"
     inkscape:window-y="0"
     inkscape:window-maximized="0"
     inkscape:current-layer="svg2" />
  <g
     id="g3338">
    <path
       style="fill:#f2f7fb"
       d="M 0,160 0,0 l 160,0 160,0 0,160 0,160 -160,0 -160,0 0,-160 z"
       id="path3354"
       inkscape:connector-curvature="0" />
    <path
       style="fill:#d4e6f6"
       d="M 0,160 0,0 l 160,0 160,0 0,160 0,160 -160,0 -160,0 0,-160 z m 179.23387,67.99615 c 15.33023,-3.71279 33.14942,-16.67859 42.1077,-30.63886 12.02899,-18.74555 14.43706,-44.32355 6.23612,-66.23889 -7.11362,-19.00965 -24.81067,-35.669924 -44.83103,-42.204585 -39.7744,-12.982399 -82.940166,10.907565 -93.344636,51.661305 -5.730505,22.44608 0.738012,48.23453 16.455056,65.60243 19.08356,21.08801 44.80879,28.73741 73.37679,21.8186 z M 146.875,225.05846 C 118.0553,218.80912 97.231145,196.49079 92.482063,166.76271 89.332064,147.04451 97.69066,123.36358 112.77241,109.27766 126.25494,96.685371 142.58561,90.029672 160,90.029672 c 25.53634,0 49.06771,14.520628 60.58105,37.383048 10.62985,21.10807 10.46266,40.71493 -0.5313,62.30892 -4.41362,8.6691 -15.33617,21.23768 -20.86651,24.01111 -1.95703,0.98144 -4.42538,2.49289 -5.4852,3.35879 -1.05983,0.8659 -5.84108,3.0505 -10.625,4.85465 -9.55001,3.6016 -27.0161,5.10331 -36.19804,3.11227 z m 46.875,-50.41631 c 0,-0.88431 -6.25045,-4.68119 -13.88989,-8.4375 -7.63943,-3.75631 -14.95193,-8.17114 -16.25,-9.81073 C 161.45236,153.66845 161.25,150.96226 161.25,124.83143 161.25,106.61048 160.79689,96.25 160,96.25 c -0.80043,0 -1.25,11.38431 -1.25,31.65294 l 0,31.65294 15.9375,8.29107 c 16.53016,8.59939 19.0625,9.50209 19.0625,6.7952 z"
       id="path3352"
       inkscape:connector-curvature="0" />
    <path
       style="fill:#a6ceee"
       d="M 0,160 0,0 l 160,0 160,0 0,160 0,160 -160,0 -160,0 0,-160 z m 176.50097,69.87879 c 3.64322,-0.75418 10.84278,-3.3664 15.99903,-5.80495 12.64162,-5.97862 27.85177,-20.97113 33.63017,-33.14898 11.15244,-23.50352 9.66714,-51.44971 -3.84564,-72.35662 C 208.25586,96.863175 185.67262,84.516704 160,84.516704 c -54.66578,0 -89.948465,56.747786 -66.045411,106.225766 5.694202,11.78669 21.037911,27.3689 32.295411,32.79742 4.46875,2.15488 11.21875,4.7342 15,5.73178 8.28573,2.18599 26.13849,2.49345 35.25097,0.60712 z m -32.12597,-6.6589 c -6.07093,-1.52258 -9.72066,-3.05929 -19.89508,-8.37674 -11.66827,-6.09818 -25.383714,-24.631 -29.476206,-39.82936 -5.532847,-20.54743 0.834477,-45.80326 15.722286,-62.3621 6.65123,-7.39776 20.22461,-15.792575 30.91374,-19.119405 15.26181,-4.750009 38.49456,-2.044038 50.10646,5.836012 2.53815,1.722433 5.0915,3.131703 5.67412,3.131703 1.92655,0 13.86747,11.47948 17.63119,16.94987 2.03416,2.95656 3.69849,6.47097 3.69849,7.80979 0,1.33883 0.81292,3.10889 1.8065,3.93349 2.97344,2.46774 5.89717,13.27452 6.3692,23.54194 0.52646,11.45165 -2.14474,24.64683 -6.19879,30.62082 -1.56257,2.30258 -3.22992,5.73591 -3.70521,7.62964 -1.13522,4.52309 -17.37923,20.76445 -20.76783,20.76445 -1.42028,0 -2.88752,0.7953 -3.26052,1.76732 -0.77314,2.01478 -10.90248,6.31563 -19.24335,8.17059 -7.55721,1.68069 -21.70641,1.45525 -29.375,-0.46802 z M 161.25,215.625 c 0,-3.09375 -0.5625,-5.625 -1.25,-5.625 -0.6875,0 -1.25,2.53125 -1.25,5.625 0,3.09375 0.5625,5.625 1.25,5.625 0.6875,0 1.25,-2.53125 1.25,-5.625 z m -28.67945,-5.9375 c 2.55901,-3.0675 3.21149,-6.40651 1.11536,-5.7078 -0.72274,0.24091 -2.46547,2.25654 -3.87275,4.47916 -2.96446,4.68205 -0.89341,5.60488 2.75739,1.22864 z M 192.5,210.6947 c 0,-2.654 -6.15966,-9.39911 -6.2105,-6.80078 -0.0361,1.84592 4.42263,8.60608 5.67622,8.60608 0.29385,0 0.53428,-0.81239 0.53428,-1.8053 z m -82.38046,-24.52981 c 3.75434,-2.67334 4.73423,-4.91489 2.14852,-4.91489 -1.71647,0 -7.26806,4.9404 -7.26806,6.46789 0,1.60602 1.19008,1.24501 5.11954,-1.553 z M 216.25,186.85662 c 0,-0.79327 -7.76876,-5.5955 -9.0625,-5.60195 -2.17848,-0.0113 -0.67962,2.55538 2.5,4.28037 3.47119,1.88315 6.5625,2.50568 6.5625,1.32158 z M 195,174.2509 c 0,-0.95995 -6.5739,-5.02703 -14.7516,-9.12638 -8.11337,-4.06711 -15.41528,-8.19443 -16.22644,-9.17182 -1.01786,-1.22646 -1.57896,-10.84791 -1.8109,-31.05239 C 161.92363,99.860506 161.60372,95.625 160,95.625 c -1.61833,0 -1.875,4.42496 -1.875,32.32468 l 0,32.32467 16.69592,8.5224 C 190.77593,176.94092 195,178.08264 195,174.2509 Z M 107.5,158.125 c 0,-2.05695 -8.060321,-2.7522 -9.267246,-0.79935 C 97.147845,159.08107 98.900449,160 103.33333,160 106.2037,160 107.5,159.41666 107.5,158.125 Z m 115.54405,0.75597 c 0.837,-1.3543 -2.17033,-2.63097 -6.19751,-2.63097 -3.04983,0 -4.87878,1.55109 -3.47923,2.95065 1.21031,1.2103 8.88791,0.95667 9.67674,-0.31968 z M 113.0921,135.05324 c 0.87958,-1.42319 -6.36176,-5.4289 -8.48934,-4.69608 -0.81277,0.27996 0.49099,1.71828 2.89724,3.19625 5.10467,3.13543 4.65567,3.015 5.5921,1.49983 z M 213.75,133.55341 c 2.40625,-1.47797 3.71001,-2.91628 2.89724,-3.19625 -1.88508,-0.6493 -9.14724,3.06221 -9.14724,4.67494 0,1.82495 1.41745,1.4896 6.25,-1.47869 z m -22.58511,-23.43387 c 3.83727,-5.38896 3.1299,-7.35921 -1.16489,-3.24454 -3.65706,3.50369 -4.92474,6.875 -2.58511,6.875 0.64067,0 2.32817,-1.63371 3.75,-3.63046 z m -56.99878,-1.58169 c -2.38927,-4.09101 -5.41611,-6.08314 -5.41611,-3.56465 0,2.25158 4.19737,7.44408 6.05256,7.48752 1.26453,0.0296 1.10783,-0.93626 -0.63645,-3.92287 z"
       id="path3350"
       inkscape:connector-curvature="0" />
    <path
       style="fill:#85bce9"
       d="M 0,160 0,0 l 160,0 160,0 0,160 0,160 -160,0 -160,0 0,-160 z m 181.35746,69.56141 c 23.58258,-7.48073 42.9846,-26.88827 50.17215,-50.18641 3.48015,-11.28078 3.69245,-30.27854 0.46024,-41.18465 -12.01464,-40.5397 -52.83729,-63.16414 -92.98764,-51.534951 -12.59539,3.64814 -21.84769,9.217885 -31.39452,18.899011 -15.334854,15.55055 -21.892693,31.57291 -21.772585,53.19559 0.118875,21.40172 6.495792,36.3259 22.187325,51.92597 9.28841,9.23428 21.46386,16.50809 31.97757,19.10392 3.09375,0.76383 6.75,1.66043 8.125,1.99242 4.68197,1.13048 27.48045,-0.38627 33.23246,-2.2109 z m -41.71921,-8.76792 c -11.40219,-3.88547 -11.89591,-4.55884 -7.2348,-9.86755 3.75112,-4.27229 5.05605,-8.42594 2.64714,-8.42594 -1.6196,0 -7.4083,6.34065 -8.27361,9.0625 -0.93567,2.94311 -1.8311,2.78275 -7.52693,-1.348 -7.68216,-5.57126 -17.47937,-17.87892 -15.3906,-19.33427 0.28355,-0.19757 2.9424,-1.91464 5.90855,-3.81573 5.07664,-3.25375 6.19669,-5.70127 3.08389,-6.73886 -0.75177,-0.2506 -3.39469,1.32485 -5.87317,3.50097 -3.48903,3.06342 -4.88891,3.63908 -6.20111,2.55005 -2.437861,-2.02325 -6.234209,-14.80072 -6.325067,-21.28847 l -0.07754,-5.53682 7.1875,0.31494 c 5.96477,0.26136 7.1875,-0.0349 7.1875,-1.74131 0,-1.70585 -1.22481,-2.00346 -7.1875,-1.74646 l -7.1875,0.3098 0.160372,-6.3136 c 0.167139,-6.58003 3.543263,-18.56227 5.585788,-19.82463 0.64901,-0.4011 2.89916,0.71728 5.00033,2.4853 3.78666,3.18626 9.87851,4.38645 9.87851,1.94621 0,-1.67538 -7.52802,-6.221 -10.3125,-6.22695 -3.60005,-0.007 -2.54617,-4.32643 2.6643,-10.91817 9.14775,-11.57276 20.1482,-18.974796 20.1482,-13.55741 0,2.07754 5.94154,9.47091 7.61111,9.47091 2.35483,0 1.00494,-4.59289 -2.65477,-9.03277 l -3.79368,-4.60237 2.85618,-1.83461 c 3.67367,-2.359721 15.18305,-5.579104 21.60616,-6.043637 4.4324,-0.320563 4.93866,-0.07781 4.45963,2.138387 -0.84199,3.895413 -1.5195,60.91774 -0.76007,63.97028 0.4949,1.98925 5.06098,4.9496 16.99103,11.01593 15.43956,7.85089 21.00051,9.37714 22.09091,6.06308 0.70026,-2.12834 -1.28558,-3.52479 -17.1565,-12.0645 l -14.375,-7.73479 -0.625,-30 c -0.34375,-16.5 -1.04365,-30.644184 -1.55532,-31.431519 -1.60089,-2.463354 2.25012,-2.840159 10.78227,-1.055001 9.76375,2.042842 19.52305,6.136266 19.52305,8.18871 0,0.80728 -1.6875,3.38973 -3.75,5.73879 -3.98774,4.54177 -4.50905,6.06736 -2.49803,7.31024 1.44514,0.89315 8.74803,-6.64496 8.74803,-9.0298 0,-4.79864 11.42901,3.58814 18.94702,13.90363 4.87757,6.69253 4.54918,8.46141 -2.07671,11.18627 -5.14564,2.11611 -7.09735,4.75328 -4.64121,6.27126 0.5385,0.33281 3.59497,-0.72092 6.79216,-2.34163 4.53451,-2.29861 6.09591,-2.60592 7.09905,-1.39723 1.68163,2.02625 5.12969,15.33126 5.12969,19.79391 0,3.42901 -0.12551,3.48737 -7.5,3.48737 -5.83334,0 -7.5,0.41666 -7.5,1.875 0,1.46301 1.68579,1.875 7.6721,1.875 l 7.6721,0 -0.77381,6.584 c -0.97052,8.2575 -4.37433,18.41922 -6.4346,19.20983 -0.8597,0.3299 -3.70342,-0.85264 -6.31935,-2.62787 -2.61595,-1.77522 -5.36043,-3.0263 -6.09885,-2.78016 -2.95489,0.98496 -1.05555,4.12544 3.92461,6.4892 2.89696,1.375 5.28759,3.39997 5.3125,4.49995 0.0615,2.71513 -5.91661,10.73454 -12.25344,16.43755 -5.27982,4.75172 -10.20126,6.15484 -10.20126,2.90841 0,-2.8299 -6.42349,-9.79742 -7.78095,-8.43996 -1.23263,1.23262 1.66006,8.12876 4.02206,9.58855 5.10695,3.15627 -6.88137,10.0825 -19.78599,11.4313 l -7.70512,0.80534 0,-6.9793 c 0,-7.41549 -1.23313,-9.53449 -3.7698,-6.47799 -0.9723,1.17155 -1.31639,3.971 -0.92018,7.48624 l 0.63289,5.61491 -5.15896,-0.0323 c -2.83743,-0.0178 -8.97799,-1.33365 -13.6457,-2.92424 z"
       id="path3348"
       inkscape:connector-curvature="0" />
    <path
       style="fill:#5fa7e2"
       d="M 0,160 0,0 l 160,0 160,0 0,160 0,160 -160,0 -160,0 0,-160 z m 186.72177,68.31819 c 16.27479,-6.29664 31.48683,-19.67021 39.52177,-34.74528 5.68608,-10.6682 7.55853,-17.79435 8.32885,-31.69791 1.27815,-23.06983 -5.43594,-40.4232 -22.00528,-56.87529 -16.01992,-15.906549 -30.5675,-21.839564 -53.19211,-21.693621 -22.09777,0.142544 -36.8952,6.399908 -52.50767,22.203841 -14.77128,14.95243 -21.810715,31.92043 -21.848854,52.66495 -0.05021,27.31088 15.588634,53.39159 39.511214,65.89242 13.69827,7.15806 19.95061,8.47434 37.97031,7.9937 13.30809,-0.35496 16.89975,-0.90995 24.22177,-3.74281 z m -40.13464,-5.86381 c -6.35533,-1.28072 -16.60724,-5.66484 -16.53633,-7.07159 0.028,-0.55429 1.71544,-2.95529 3.75,-5.33558 4.09635,-4.79242 4.60506,-6.93212 1.89529,-7.97196 -1.79113,-0.68733 -9.44609,6.78299 -9.44609,9.21825 0,4.56494 -15.33636,-7.60093 -20.35211,-16.1447 l -2.22711,-3.79364 3.47711,-1.8215 c 4.84506,-2.53812 9.2991,-6.95366 8.43106,-8.35817 -1.26788,-2.05148 -4.58266,-1.2787 -9.01433,2.1015 -3.62425,2.76435 -4.55478,3.00878 -5.94829,1.5625 C 98.446341,182.58734 95,170.65755 95,165.39812 l 0,-4.14812 6.91423,0 c 5.1866,0 7.10611,-0.50003 7.68215,-2.00115 1.15196,-3.00196 -2.02231,-4.41798 -8.65888,-3.86266 L 95,155.88301 l 0,-4.58962 c 0,-4.01998 2.987021,-16.47247 4.58466,-19.11284 0.314306,-0.51944 2.97638,0.46494 5.91572,2.1875 6.51952,3.8207 9.49962,4.01385 9.49962,0.6157 0,-1.74401 -1.72629,-3.35494 -5.625,-5.24908 -3.47129,-1.68648 -5.625,-3.5674 -5.625,-4.9125 0,-2.36157 11.91681,-15.84659 17.54584,-19.85481 l 3.4681,-2.46951 4.49095,6.25108 c 2.47002,3.43809 5.07205,6.25107 5.78226,6.25107 3.07109,0 2.58459,-4.26004 -1.08028,-9.45943 l -3.88595,-5.51304 3.65137,-1.888196 c 4.21195,-2.178084 16.85306,-5.638827 20.60283,-5.640411 2.51232,-0.0011 2.54415,0.488293 2.16104,33.217437 -0.29682,25.35799 -0.016,33.66778 1.18681,35.11706 0.86662,1.04422 8.81737,5.52738 17.66833,9.9626 16.31935,8.17764 20.9087,9.10182 20.9087,4.21047 0,-3.19023 -3.77314,-5.85248 -18.48491,-13.04256 -8.85023,-4.32538 -12.8032,-6.94563 -13.26718,-8.79422 -0.36347,-1.44821 -0.7094,-15.55072 -0.7687,-31.33891 l -0.10784,-28.7058 5.17002,0.247152 c 5.80116,0.277324 16.59792,3.479242 20.96225,6.216623 l 2.87863,1.805535 -3.81613,4.34634 C 184.80261,110.3118 183.77046,115 186.7776,115 c 0.97767,0 3.70351,-2.25 6.0574,-5 2.3539,-2.75 4.83631,-5 5.51646,-5 3.21001,0 20.5866,20.22861 18.85986,21.95534 -0.35997,0.35998 -3.11417,1.89542 -6.12042,3.41208 -5.62254,2.8366 -7.17413,6.14437 -3.23775,6.90244 1.22549,0.23601 4.2218,-0.74717 6.65846,-2.18484 2.43668,-1.43767 4.90663,-2.31957 5.48878,-1.95978 1.4667,0.90647 4.78343,11.57935 5.24405,16.87476 l 0.38056,4.375 -6.21826,0.39245 c -7.26945,0.4588 -10.16798,2.18416 -8.0191,4.7734 0.84491,1.01805 3.88378,1.70915 7.51541,1.70915 6.01951,0 6.09695,0.0505 6.09695,3.9805 0,5.5635 -3.83064,18.6289 -5.66858,19.33419 -0.83858,0.3218 -3.42185,-0.57152 -5.74057,-1.98513 -5.39816,-3.29102 -8.59085,-3.33002 -8.59085,-0.105 0,1.65771 1.7537,3.35896 5.3125,5.15365 2.92187,1.47348 5.4946,2.83889 5.71717,3.03424 1.80842,1.58729 -16.26127,21.91739 -19.37437,21.798 -0.56666,-0.0217 -2.55554,-2.55298 -4.4197,-5.625 -3.42139,-5.63818 -7.23955,-7.43243 -7.23093,-3.39799 0.002,1.20313 1.16127,4.08464 2.57489,6.40335 1.41361,2.31873 2.29399,4.9357 1.95638,5.8155 -0.89305,2.32726 -13.21067,6.61954 -20.30595,7.07594 l -6.10499,0.39275 0.34311,-5.625 c 0.3884,-6.36765 -1.05382,-9.46425 -3.89937,-8.37231 -1.33317,0.51158 -2.05159,2.79999 -2.31365,7.36965 -0.42787,7.46066 -1.1647,7.87211 -10.66797,5.95704 z"
       id="path3346"
       inkscape:connector-curvature="0" />
    <path
       style="fill:#2e8dda"
       d="M 0,160 0,0 l 160,0 160,0 0,160 0,160 -160,0 -160,0 0,-160 z m 178.17487,71.85621 c 32.19988,-8.18507 55.35812,-35.91077 57.58037,-68.93685 2.58158,-38.36631 -23.8211,-72.030505 -62.63024,-79.855386 -35.50504,-7.158692 -73.928416,16.146891 -85.655508,51.954086 -2.525043,7.7099 -3.053548,11.77725 -3.002471,23.10694 0.06561,14.55461 1.501098,21.1545 7.234708,33.26286 9.269011,19.57449 31.362401,36.8071 52.673271,41.08463 8.45989,1.69806 25.94982,1.37917 33.79987,-0.61628 z M 143.75,220.72421 c -12.40454,-3.54396 -14.38619,-5.1027 -10.54258,-8.29261 2.67055,-2.21636 5.32257,-7.71195 4.6419,-9.6191 -1.0893,-3.0521 -5.28857,-1.4915 -9.24962,3.4375 -2.20996,2.75 -4.69958,5 -5.5325,5 -1.70874,0 -18.0672,-16.92162 -18.0672,-18.6892 0,-0.62828 0.98438,-1.47624 2.1875,-1.88435 3.85127,-1.30637 9.2534,-6.88704 8.82418,-9.11579 -0.66553,-3.45583 -4.52804,-3.28558 -9.37755,0.41331 -4.23397,3.2294 -4.59238,3.29994 -6.12409,1.2052 -1.934381,-2.64542 -5.856755,-19.10691 -4.915577,-20.62976 0.360808,-0.5838 2.82482,-0.77056 5.475577,-0.41501 5.34626,0.71707 10.17996,-1.22226 10.17996,-4.08431 0,-2.46923 -5.68789,-4.52927 -11.19785,-4.05564 l -4.42715,0.38055 0.364051,-5 c 0.40372,-5.54483 2.470264,-12.97034 4.228519,-15.19395 0.83547,-1.05659 2.59453,-0.63199 6.55711,1.58274 5.97807,3.34121 9.83074,2.89063 9.22891,-1.07934 -0.22942,-1.51334 -2.71579,-3.71811 -6.31018,-5.59554 l -5.93159,-3.09819 2.18159,-3.7423 c 2.5227,-4.32745 13.11032,-15.40404 16.41414,-17.17219 1.85211,-0.99121 2.9386,-0.22333 6.16946,4.36034 6.86554,9.74021 12.79163,6.35321 6.43141,-3.67581 -3.29843,-5.20111 -3.43197,-5.819872 -1.47954,-6.855929 3.59058,-1.905341 15.52439,-5.154765 18.93549,-5.155894 l 3.21063,-0.0011 -0.37233,32.613405 c -0.2632,23.05408 0.0449,33.11614 1.05119,34.32862 0.78294,0.94339 8.37464,5.39284 16.87044,9.88768 16.46568,8.71141 22.29815,10.09146 23.71974,5.61243 1.21706,-3.8346 -1.10368,-5.77275 -15.64404,-13.06501 -7.29042,-3.65629 -13.90881,-7.4352 -14.70751,-8.39758 -0.9895,-1.19227 -1.56614,-11.22915 -1.80984,-31.50173 l -0.35765,-29.751963 5.63857,0.66884 C 176.93149,94.963159 190,99.723753 190,101.42321 c 0,0.68398 -1.40625,3.08728 -3.125,5.34068 -3.6322,4.76206 -3.99399,7.98111 -1.02506,9.1204 1.47251,0.56505 3.48403,-0.75386 6.73233,-4.41423 2.54783,-2.87103 5.20748,-5.22006 5.91034,-5.22006 2.99027,0 17.73278,16.75555 17.75271,20.17677 0.003,0.44098 -2.13655,1.65853 -4.75359,2.70567 -2.61705,1.04713 -5.52186,2.82393 -6.45513,3.94846 -1.44301,1.73872 -1.38756,2.35385 0.37064,4.11206 1.92332,1.92331 2.4663,1.87373 7.78667,-0.71111 3.14555,-1.52822 6.16783,-2.50131 6.71617,-2.16243 1.30717,0.80788 3.78372,10.13264 4.16458,15.68058 0.29699,4.32611 0.24889,4.37052 -4.30433,3.9742 -5.55981,-0.48395 -9.77033,1.53031 -9.77033,4.67399 0,2.60538 3.25497,3.80915 10.36914,3.83475 l 4.74415,0.0171 -0.78559,4.6875 c -1.2375,7.38406 -4.41176,16.5625 -5.72795,16.5625 -0.65964,0 -3.48147,-1.16425 -6.27074,-2.58722 -9.71435,-4.9559 -12.41599,1.35105 -2.95401,6.89613 3.09375,1.81307 5.625,3.82472 5.625,4.47035 0,1.36824 -16.13824,18.72068 -17.41079,18.72068 -0.47187,0 -2.66914,-2.56953 -4.88278,-5.71006 -6.61478,-9.38446 -12.33717,-5.14657 -5.99381,4.43891 2.38958,3.61089 2.80472,5.09286 1.67094,5.96499 -2.86277,2.20213 -11.90632,5.18991 -18.26043,6.03281 l -6.37313,0.84542 0,-7.07526 c 0,-5.16249 -0.5112,-7.27144 -1.89091,-7.80089 -3.41097,-1.3089 -5.60909,2.00534 -5.60909,8.45713 0,5.83834 -0.14581,6.09337 -3.4375,6.01259 -1.89063,-0.0464 -5.96875,-0.80755 -9.0625,-1.69143 z"
       id="path3344"
       inkscape:connector-curvature="0" />
    <path
       style="fill:#1982d7"
       d="M 0,160 0,0 l 160,0 160,0 0,160 0,160 -160,0 -160,0 0,-160 z m 184.96721,70.72295 c 23.33259,-7.902 43.15948,-29.05271 49.41389,-52.7132 2.56246,-9.69381 2.56763,-30.14355 0.01,-39.7695 -6.48299,-24.4 -26.70321,-45.451595 -51.8911,-54.024699 -9.7234,-3.309516 -35.24374,-3.315948 -45,-0.01134 C 112.88006,92.543384 92.688205,113.36967 85.827759,137.5 c -3.376658,11.87676 -3.848024,22.29984 -1.526585,33.7566 6.735362,33.24039 30.935676,56.89812 64.448826,63.00389 7.87259,1.4343 27.07479,-0.44128 36.21721,-3.53754 z M 140.1122,218.6667 c -3.71954,-1.32034 -7.01071,-2.64855 -7.31373,-2.95156 -0.30302,-0.30302 0.95529,-2.52572 2.79624,-4.93932 7.12439,-9.34055 0.41464,-14.99615 -6.93741,-5.8475 -2.24164,2.78943 -4.73616,5.07168 -5.54337,5.07168 -0.80721,0 -5.04648,-3.72698 -9.4206,-8.28216 l -7.95294,-8.28217 3.0673,-2.43782 c 9.501,-7.55121 10.55795,-9.78654 5.98812,-12.66415 -1.60221,-1.00891 -3.24491,-0.53783 -7.1607,2.05351 -2.79483,1.84954 -5.31374,3.36279 -5.59758,3.36279 -1.05993,0 -4.335454,-9.67395 -5.178079,-15.29297 l -0.873421,-5.82439 7.31949,-0.37883 c 7.21524,-0.37341 7.31948,-0.43221 7.31948,-4.12881 0,-3.6966 -0.10424,-3.7554 -7.31948,-4.12881 l -7.31949,-0.37883 0.875944,-5.87117 c 0.48177,-3.22915 1.616086,-7.64817 2.520705,-9.82002 l 1.644761,-3.94882 5.88149,2.97759 c 4.4597,2.25778 6.45074,2.67294 8.23628,1.71735 4.47064,-2.39262 2.18691,-6.78933 -5.57614,-10.7354 -2.16924,-1.10265 -4.15958,-2.19568 -4.42299,-2.42894 -0.2634,-0.23327 1.67784,-3.25224 4.31386,-6.70883 5.6299,-7.3824 14.11737,-14.54913 15.40247,-13.00567 0.49529,0.59485 2.46952,3.22308 4.38718,5.84051 2.48301,3.38909 4.26222,4.64844 6.18104,4.375 4.00102,-0.57016 4.08591,-5.74099 0.18072,-11.00896 l -3.24321,-4.375 5.10244,-2.250716 c 2.80633,-1.237895 7.75787,-2.565723 11.00342,-2.95073 l 5.901,-0.700013 -0.37436,31.513219 c -0.3221,27.11266 -0.0971,31.93634 1.61101,34.54329 2.96335,4.52265 34.26611,19.83538 38.41791,18.79335 1.75708,-0.441 3.55074,-1.72969 3.98591,-2.86374 1.51184,-3.93978 -3.08908,-7.93132 -17.35945,-15.06016 l -14.32171,-7.1545 -0.35466,-29.74849 -0.35465,-29.748491 3.41125,9.91e-4 c 4.66835,0.0014 19.71375,5.05474 19.71375,6.62137 0,0.69775 -1.44495,3.16307 -3.211,5.47848 -3.54883,4.65276 -3.5881,7.54648 -0.13085,9.64216 1.93531,1.17313 3.09461,0.49514 7.60935,-4.45007 l 5.3262,-5.83405 5.07075,4.58405 c 2.78891,2.52123 6.65199,6.75721 8.58462,9.41329 3.88378,5.33761 3.96422,5.16126 -4.49342,9.8506 -2.90516,1.61076 -3.827,2.91606 -3.53109,5 0.5178,3.64668 5.64631,4.35181 11.10831,1.5273 4.75027,-2.45645 5.42269,-1.79175 7.37668,7.29188 2.04849,9.52297 1.99995,9.62369 -4.64705,9.64512 -7.2886,0.0235 -9.4071,1.24835 -8.85936,5.12222 0.37147,2.62728 1.16836,3.02993 6.67186,3.37114 3.4375,0.21311 6.72424,0.8561 7.30386,1.42886 1.32822,1.31246 -1.23317,13.97129 -3.43671,16.98481 -1.58015,2.16098 -1.87245,2.1443 -7.01546,-0.40026 -3.96363,-1.96104 -5.96923,-2.33267 -7.67165,-1.42157 -3.56359,1.90717 -2.81716,5.97822 1.53855,8.3913 7.24872,4.01581 7.85412,4.67632 6.50147,7.09337 C 211.24064,197.20596 198.60749,210 197.38102,210 c -0.50992,0 -2.14827,-1.97586 -3.6408,-4.39081 -3.41156,-5.52003 -6.96206,-7.60364 -9.44512,-5.54288 -2.54188,2.10956 -2.24715,4.26728 1.36431,9.9882 l 3.15942,5.00483 -5.97192,2.5633 c -3.28455,1.40981 -8.64379,2.88106 -11.90941,3.26943 l -5.9375,0.70615 0,-6.38013 c 0,-5.02089 -0.51331,-6.65485 -2.40945,-7.66963 -4.8513,-2.59633 -7.53644,0.82113 -7.57349,9.63904 -0.0157,3.76539 -0.31417,4.05583 -4.07956,3.97116 -2.23438,-0.0503 -7.10576,-1.17161 -10.8253,-2.49196 z"
       id="path3342"
       inkscape:connector-curvature="0" />
    <path
       style="fill:#0075d4"
       d="M 0,160 0,0 l 160,0 160,0 0,160 0,160 -160,0 -160,0 0,-160 z m 180.46956,73.01496 c 9.95991,-2.43244 22.70391,-9.33179 31.16244,-16.87075 8.67264,-7.72981 18.39321,-22.05804 22.0973,-32.57167 3.86704,-10.97617 4.86048,-32.31957 2.0292,-43.59632 -6.44009,-25.65034 -25.98954,-47.0775 -50.99863,-55.896982 -7.66271,-2.702263 -11.45152,-3.240183 -23.50987,-3.337831 -15.74459,-0.127498 -22.46315,1.240844 -34.24246,6.974017 -24.22118,11.788826 -38.859448,31.385586 -44.116905,59.060866 -4.453319,23.4423 6.224684,52.31257 25.702155,69.49131 7.14438,6.3012 19.5475,13.48575 27.87365,16.14593 12.12235,3.87305 29.62738,4.11229 44.00312,0.60143 z M 148.00839,219.8939 c -2.81414,-0.52066 -7.21182,-1.82209 -9.77263,-2.89206 l -4.65602,-1.94542 3.21012,-4.2087 c 3.48055,-4.56322 4.07303,-8.23483 1.71014,-10.59772 -2.6659,-2.6659 -5.71215,-1.6087 -10.085,3.5 -2.3539,2.75 -4.84336,5 -5.53213,5 -0.68878,0 -4.51906,-3.42484 -8.51174,-7.61074 l -7.25941,-7.61075 3.63164,-2.9693 c 1.9974,-1.63311 4.03372,-2.98953 4.52516,-3.01426 1.69457,-0.0853 3.6181,-5.1453 2.86179,-7.52823 -1.28881,-4.06068 -5.31768,-4.30582 -10.82862,-0.65886 -2.76709,1.83118 -5.20304,3.14665 -5.41322,2.92328 C 101.07376,181.41525 97.5,168.17553 97.5,166.02312 c 0,-1.88178 1.03295,-2.27312 6,-2.27312 6.61314,0 9,-1.54643 9,-5.83103 0,-3.5874 -3.40012,-5.41897 -10.05975,-5.41897 l -5.22411,0 0.873256,-5.82329 c 0.48029,-3.2028 1.390759,-7.18441 2.023264,-8.84802 l 1.15001,-3.02477 4.20371,2.59804 c 5.31036,3.28199 10.28771,3.3603 11.98516,0.18859 1.88938,-3.53035 0.49488,-5.84138 -5.72386,-9.4858 l -5.54485,-3.2495 2.83978,-3.99012 c 3.05003,-4.28554 13.46081,-14.64595 14.63852,-14.56769 0.39263,0.0261 2.27068,2.29756 4.17346,5.04771 3.90703,5.64699 6.5808,7.1319 9.52281,5.28863 3.07074,-1.92393 3.11697,-6.20666 0.1125,-10.42599 -1.48685,-2.08809 -2.42081,-4.53287 -2.07545,-5.43285 0.56174,-1.463865 5.45449,-3.147267 14.6055,-5.025165 l 3.125,-0.641287 0,32.313522 c 0,29.89252 0.17639,32.50853 2.35431,34.91602 1.29488,1.43137 9.88008,6.37822 19.07821,10.99301 14.47737,7.26341 17.18355,8.22982 20.14569,7.19424 3.88525,-1.35832 5.32425,-6.85488 2.64103,-10.08797 -0.87253,-1.05132 -6.96005,-4.62663 -13.52783,-7.94513 -18.04557,-9.11793 -16.24567,-4.92892 -16.37786,-38.11718 l -0.1145,-28.75 3.52551,0.382155 c 4.86105,0.526924 15.22238,3.943359 16.05751,5.294635 0.37753,0.61085 -0.80638,3.36641 -2.63092,6.12346 -3.58284,5.41404 -3.40762,7.86362 0.72045,10.0729 2.30107,1.23149 3.28979,0.75965 7.74617,-3.69675 3.59896,-3.59895 5.79524,-4.89043 7.43278,-4.3707 2.29837,0.72948 13.5745,13.63185 13.5745,15.53224 0,0.54106 -1.64684,1.6659 -3.65964,2.49962 -5.04646,2.09033 -7.86904,5.53208 -7.37831,8.99685 0.52594,3.71333 5.57675,4.48969 10.99166,1.68953 2.12834,-1.10062 4.39487,-1.67654 5.03672,-1.27985 1.39776,0.86386 3.74282,8.87428 3.7526,12.81841 0.006,2.49432 -0.61927,2.8125 -5.52874,2.8125 -8.15269,0 -12.01,4.77572 -7.5,9.28571 1.21192,1.21193 4.14963,1.96429 7.6699,1.96429 l 5.70562,0 -0.74917,5.46581 c -0.90943,6.63501 -3.23228,12.03419 -5.17738,12.03419 -0.78948,0 -2.52732,-0.82586 -3.86185,-1.83525 -3.13147,-2.36853 -8.57578,-2.42024 -10.50162,-0.0998 -2.34046,2.82009 -0.34538,6.69236 5.02915,9.76114 2.696,1.53936 4.90614,3.26248 4.91144,3.82915 0.0113,1.21615 -13.77735,15.86651 -14.86815,15.79726 -0.41098,-0.0261 -2.28875,-2.27609 -4.17285,-5 -3.73217,-5.39575 -8.07388,-6.54233 -11.07601,-2.92499 -1.43879,1.73364 -1.19522,2.90075 1.68017,8.05083 l 3.3629,6.02323 -6.52071,2.39564 c -3.58641,1.31761 -8.34885,2.74318 -10.58323,3.16794 l -4.0625,0.7723 0,-5.35484 c 0,-6.98911 -2.16808,-9.92006 -6.93664,-9.3774 -3.47489,0.39545 -3.71079,0.78148 -4.07586,6.66974 -0.21311,3.4375 -0.77561,6.57975 -1.25,6.98277 -0.47438,0.40303 -3.16498,0.30679 -5.97911,-0.21387 z"
       id="path3340"
       inkscape:connector-curvature="0" />
  </g>
</svg>
