<?xml version="1.0" encoding="UTF-8" standalone="no"?>
<!-- Created with Inkscape (http://www.inkscape.org/) -->

<svg
   xmlns:dc="http://purl.org/dc/elements/1.1/"
   xmlns:cc="http://creativecommons.org/ns#"
   xmlns:rdf="http://www.w3.org/1999/02/22-rdf-syntax-ns#"
   xmlns:svg="http://www.w3.org/2000/svg"
   xmlns="http://www.w3.org/2000/svg"
   xmlns:sodipodi="http://sodipodi.sourceforge.net/DTD/sodipodi-0.dtd"
   xmlns:inkscape="http://www.inkscape.org/namespaces/inkscape"
   id="svg2"
   version="1.1"
   inkscape:version="0.91 r13725"
   width="320"
   height="320"
   viewBox="0 0 320 320"
   sodipodi:docname="chromium-browser.svg">
  <metadata
     id="metadata8">
    <rdf:RDF>
      <cc:Work
         rdf:about="">
        <dc:format>image/svg+xml</dc:format>
        <dc:type
           rdf:resource="http://purl.org/dc/dcmitype/StillImage" />
        <dc:title />
      </cc:Work>
    </rdf:RDF>
  </metadata>
  <defs
     id="defs6" />
  <sodipodi:namedview
     pagecolor="#ffffff"
     bordercolor="#666666"
     borderopacity="1"
     objecttolerance="10"
     gridtolerance="10"
     guidetolerance="10"
     inkscape:pageopacity="0"
     inkscape:pageshadow="2"
     inkscape:window-width="682"
     inkscape:window-height="480"
     id="namedview4"
     showgrid="false"
     inkscape:zoom="0.52149125"
     inkscape:cx="189.38216"
     inkscape:cy="38.578724"
     inkscape:window-x="0"
     inkscape:window-y="0"
     inkscape:window-maximized="0"
     inkscape:current-layer="svg2" />
  <g
     id="g4190"
     transform="translate(-134.23044,-134.23044)">
    <rect
       y="217.40959"
       x="209.01598"
       height="148.61227"
       width="162.03532"
       id="rect3388"
       style="fill:#ffffff;fill-rule:evenodd;stroke:#ffffff;stroke-width:1px;stroke-linecap:butt;stroke-linejoin:miter;stroke-opacity:1" />
    <g
       transform="translate(134.23044,136.14802)"
       id="g3372">
      <path
         inkscape:connector-curvature="0"
         id="path3386"
         d="M 130.625,302.49306 C 76.499259,290.96017 33.601061,250.2414 19.060654,196.59669 16.008156,185.33495 15.747964,182.46047 15.747964,160 c 0,-22.5337 0.254167,-25.31926 3.36464,-36.875 C 23.107014,108.28534 34.77543,84.171851 43.640727,72.436144 47.043006,67.932274 54.387844,59.889588 59.962589,54.563509 111.88403,4.9580582 191.56619,0.6785599 248.75,44.424282 c 16.15389,12.357757 36.66577,37.480904 40.60311,49.731061 0.92271,2.870811 3.65883,10.623707 6.08025,17.228647 6.00795,16.38795 8.31664,29.70308 8.31664,47.96536 0,31.07966 -7.38445,55.54957 -24.6447,81.66525 -16.74775,25.34026 -44.91553,46.42631 -75.3553,56.41007 -20.07064,6.58284 -54.73986,8.98582 -73.125,5.06839 z m 50.5189,-81.66269 c 15.34608,-5.33685 31.55405,-18.90386 38.16182,-31.94366 16.23063,-32.0296 2.52397,-72.34354 -30.07436,-88.45451 -8.70365,-4.301577 -10.32786,-4.66546 -23.18997,-5.1954 -8.62703,-0.355447 -16.48064,0.01969 -20.8736,0.997058 C 115.82797,102.76151 95,129.13945 95,159.76969 c 0,18.81107 6.57843,34.28461 19.90454,46.81871 18.3981,17.30465 42.51947,22.49092 66.23936,14.24197 z M 144.375,210.74731 c -19.40751,-6.15388 -33.26973,-22.05156 -37.03186,-42.46939 -4.07212,-22.10016 8.65824,-46.19347 29.58086,-55.98434 26.60487,-12.449925 57.12704,-1.61257 70.25202,24.94403 4.53439,9.17471 4.69898,9.96973 4.69898,22.69757 0,12.19231 -0.29666,13.81596 -3.92276,21.46904 -6.62873,13.99033 -17.4552,23.9091 -31.29408,28.67038 -8.21811,2.82745 -24.42289,3.16512 -32.28316,0.67271 z"
         style="fill:#b0cbfb" />
      <path
         inkscape:connector-curvature="0"
         id="path3384"
         d="M 133.68919,301.81651 C 123.25855,299.92716 105.28303,293.91919 95.625,289.09429 54.410963,268.50479 24.070484,226.70154 17.44279,181.37446 15.349995,167.06176 16.573688,138.53669 19.807565,126.25 25.03251,106.39852 35.002321,85.195285 45.668699,71.25 52.753545,61.98723 69.043738,46.591397 78.693303,40.038502 95.556727,28.586769 120.09601,19.184424 140.54291,16.34052 176.61226,11.323736 217.39905,21.851021 246.28959,43.634292 263.37869,56.519369 287.5,85.523043 287.5,93.186063 c 0,2.178865 -0.915,3.066266 -3.81936,3.704172 -2.10065,0.46138 -17.4225,7.021565 -34.04855,14.578195 l -30.22919,13.73933 -1.80534,-2.91638 c -3.56719,-5.76254 -19.5858,-20.60558 -25.09931,-23.257326 -6.49785,-3.125164 -19.3098,-5.231794 -31.87325,-5.240817 -31.91269,-0.02292 -57.63848,20.303393 -64.948851,51.317013 -2.422335,10.27655 -2.40886,17.64662 0.05418,29.62995 2.63192,12.80497 8.155301,22.98255 17.529531,32.3005 13.35854,13.27836 31.74634,20.19189 49.72043,18.69407 16.27071,-1.35586 28.54917,-6.41932 41.35661,-17.05486 3.49536,-2.90261 6.41906,-4.53704 6.68559,-3.73744 0.46566,1.39698 -52.00962,92.34672 -55.74687,96.62003 -2.29581,2.62511 -8.11787,2.69362 -21.58643,0.25401 z m 10.41836,-92.3241 c -24.12857,-7.79661 -39.96132,-33.63612 -35.48747,-57.91656 3.04466,-16.52398 14.8575,-31.88593 29.81412,-38.77162 9.61013,-4.42429 26.77344,-5.42248 36.7489,-2.13726 14.54301,4.78946 25.24044,14.42448 31.97047,28.79537 3.10419,6.62847 3.47143,8.80116 3.47143,20.53766 0,12.16724 -0.29126,13.73986 -3.99141,21.55094 -5.16602,10.90553 -14.17712,19.91663 -25.08265,25.08265 -7.39958,3.50522 -9.87243,4.0261 -20.30094,4.27615 -7.37415,0.17682 -13.87146,-0.36038 -17.14245,-1.41733 z"
         style="fill:#9cb7e6" />
      <path
         inkscape:connector-curvature="0"
         id="path3382"
         d="M 131.25,300.04372 C 101.62903,293.68639 77.014545,279.89555 56.23339,258.01394 30.325954,230.73459 17.5,198.27881 17.5,160 17.5,134.24779 22.620627,113.99716 35.171954,90.112436 66.044589,31.362914 136.57805,2.961898 202.82184,22.606512 c 11.41995,3.38659 33.4752,14.678205 43.49201,22.266592 16.22274,12.289762 40.771,41.722973 39.65548,47.54666 -0.52257,2.728081 -17.81783,3.029427 -81.98476,1.428471 -57.19673,-1.42705 -58.95622,-1.28937 -73.84562,5.778435 -33.052556,15.68961 -46.956358,58.30667 -30.06007,92.13822 6.74201,13.49956 22.75098,26.97407 37.80807,31.82251 11.35444,3.65617 16.73501,4.19467 27.91064,2.79336 12.74228,-1.59775 22.28906,-5.17901 32.57106,-12.21835 4.4762,-3.06452 8.40501,-5.30541 8.73069,-4.97974 0.66599,0.66599 -50,87.7209 -53.03759,91.12983 -2.49214,2.79679 -8.8789,2.72154 -22.81175,-0.26878 z m 16.875,-90.44993 c -15.20464,-3.8831 -30.34311,-16.78164 -35.78259,-30.48807 -2.28395,-5.75511 -2.86956,-9.65411 -2.86956,-19.10572 0,-15.39795 2.99605,-23.37361 12.72964,-33.88705 20.23792,-21.85937 52.63992,-22.65771 73.4993,-1.81092 9.42876,9.42308 13.38398,18.65566 14.04892,32.79403 0.64618,13.73961 -1.58374,22.23305 -8.39801,31.98681 -11.57516,16.56837 -34.33066,25.33704 -53.2277,20.51092 z"
         style="fill:#558ceb" />
      <path
         inkscape:connector-curvature="0"
         id="path3380"
         d="m 152.5,296.90006 c 0,-2.97441 6.5174,-67.57401 6.85169,-67.91301 0.2104,-0.21339 4.11124,-0.91601 8.66851,-1.5614 10.50564,-1.48778 20.74305,-5.0753 28.05408,-9.83108 3.14472,-2.04561 5.92143,-3.51553 6.17047,-3.2665 0.59709,0.5971 -45.60771,79.50824 -47.94157,81.87729 -0.99175,1.00669 -1.80318,1.31931 -1.80318,0.6947 z m -9.72235,-90.54407 c -13.32039,-4.93503 -24.68283,-16.40743 -29.81741,-30.10599 -3.1105,-8.2985 -2.89634,-25.03659 0.42733,-33.399 5.62507,-14.15276 17.37362,-25.34855 31.24639,-29.77629 9.88939,-3.15637 26.36004,-2.15352 35.63863,2.16994 9.99768,4.65853 18.9617,13.46145 23.82203,23.39395 3.77207,7.70852 4.02824,9.07759 3.99712,21.3614 -0.0297,11.75507 -0.3945,13.86766 -3.49412,20.24026 -5.09877,10.48279 -13.33711,18.98254 -23.01802,23.74843 -7.28661,3.5872 -9.66518,4.10901 -20.23103,4.43832 -9.47323,0.29528 -13.35123,-0.1372 -18.57092,-2.07102 z M 88.426985,171.5625 C 64.188416,130.01134 40,86.266769 40,83.982673 40,77.657808 60.813284,54.533481 76.563843,43.358895 123.23029,10.250341 184.56695,7.7721617 233.71815,37.009404 c 12.73475,7.575176 28.07134,20.697475 36.76352,31.45562 6.98598,8.646407 15.76833,22.265081 15.76833,24.451732 0,0.74493 -25.76563,0.956385 -69.0045,0.566313 -54.15043,-0.48851 -70.32715,-0.273609 -75.1488,0.99832 -17.28586,4.559925 -34.08721,18.206951 -41.57099,33.766371 -7.388975,15.36231 -9.621385,33.10394 -5.987335,47.58315 1.326403,5.2848 -1.820877,3.08664 -6.11139,-4.26841 z"
         style="fill:#357bed" />
      <path
         inkscape:connector-curvature="0"
         id="path3378"
         d="M 66.315949,132.49806 C 51.842178,107.0595 40,85.097981 40,83.69469 40,77.639231 61.182492,54.271538 76.563843,43.358895 123.23029,10.250341 184.56695,7.7721617 233.71815,37.009404 c 12.73475,7.575176 28.07134,20.697475 36.76352,31.45562 6.98598,8.646407 15.76833,22.265081 15.76833,24.451732 0,0.74493 -25.76563,0.956385 -69.0045,0.566313 -54.15043,-0.48851 -70.32715,-0.273609 -75.1488,0.99832 -17.28586,4.559925 -34.08721,18.206951 -41.57099,33.766371 -7.388975,15.36231 -9.621385,33.10394 -5.987335,47.58315 2.160919,8.60979 -4.402006,-1.46696 -28.222426,-43.33285 z"
         style="fill:#4a73b8" />
      <path
         inkscape:connector-curvature="0"
         id="path3376"
         d="M 86.459754,165.3125 C 64.78007,127.98539 41.25,85.480297 41.25,83.644894 41.25,80.820419 53.756244,65.103827 62.620369,56.788761 89.63641,31.446137 122.6926,18.301716 159.375,18.315369 c 40.82375,0.01519 75.47491,14.749331 103.38209,43.959445 9.61892,10.068016 20.99291,25.656648 20.99291,28.77187 0,1.421283 -10.85964,1.550028 -66.5625,0.789121 -74.07813,-1.011915 -74.68436,-0.963196 -90.15186,7.244735 -10.15816,5.39049 -22.00476,17.17296 -26.68894,26.54446 -6.918008,13.84064 -8.448508,20.11804 -8.457206,34.6875 -0.0044,7.39062 -0.125292,13.4375 -0.26862,13.4375 -0.14333,0 -2.465834,-3.79688 -5.16112,-8.4375 z"
         style="fill:#2659ae" />
      <path
         inkscape:connector-curvature="0"
         id="path3374"
         d="M 87.962785,165 C 78.413877,149.30762 43.696524,87.04209 44.001844,86.1561 c 0.205236,-0.595561 12.662604,7.674364 27.683041,18.37761 30.418865,21.67584 28.345515,18.79221 23.253599,32.34129 -1.889785,5.02852 -3.0649,11.61911 -3.566039,20 L 90.625,169.375 87.962785,165 Z"
         style="fill:#1e478c" />
    </g>
  </g>
</svg>
