<?xml version="1.0" encoding="UTF-8" standalone="no"?>
<!-- Created with Inkscape (http://www.inkscape.org/) -->

<svg
   xmlns:dc="http://purl.org/dc/elements/1.1/"
   xmlns:cc="http://creativecommons.org/ns#"
   xmlns:rdf="http://www.w3.org/1999/02/22-rdf-syntax-ns#"
   xmlns:svg="http://www.w3.org/2000/svg"
   xmlns="http://www.w3.org/2000/svg"
   xmlns:sodipodi="http://sodipodi.sourceforge.net/DTD/sodipodi-0.dtd"
   xmlns:inkscape="http://www.inkscape.org/namespaces/inkscape"
   id="svg2"
   version="1.1"
   inkscape:version="0.91 r13725"
   width="320"
   height="320"
   viewBox="0 0 320 320"
   sodipodi:docname="claws-mail.svg">
  <metadata
     id="metadata8">
    <rdf:RDF>
      <cc:Work
         rdf:about="">
        <dc:format>image/svg+xml</dc:format>
        <dc:type
           rdf:resource="http://purl.org/dc/dcmitype/StillImage" />
        <dc:title />
      </cc:Work>
    </rdf:RDF>
  </metadata>
  <defs
     id="defs6" />
  <sodipodi:namedview
     pagecolor="#ffffff"
     bordercolor="#666666"
     borderopacity="1"
     objecttolerance="10"
     gridtolerance="10"
     guidetolerance="10"
     inkscape:pageopacity="0"
     inkscape:pageshadow="2"
     inkscape:window-width="682"
     inkscape:window-height="480"
     id="namedview4"
     showgrid="false"
     inkscape:zoom="0.36875"
     inkscape:cx="170.68338"
     inkscape:cy="219.88503"
     inkscape:window-x="514"
     inkscape:window-y="157"
     inkscape:window-maximized="0"
     inkscape:current-layer="svg2" />
  <g
     id="g4743"
     transform="translate(98.20339,130.16949)">
    <rect
       y="-38.655556"
       x="-54.248775"
       height="141.62154"
       width="257.69827"
       id="rect4201"
       style="fill:#ffffff;fill-rule:evenodd;stroke:#ffffff;stroke-width:0.97702473px;stroke-linecap:butt;stroke-linejoin:miter;stroke-opacity:1" />
    <g
       transform="translate(-97.627119,-126.10169)"
       id="g3356">
      <path
         inkscape:connector-curvature="0"
         id="path3370"
         d="M 96.246673,283.33431 C 52.588591,274.96919 16.166716,267.66993 15.309172,267.11372 13.024309,265.63177 13.027586,53.375975 15.3125,51.573561 16.171875,50.895657 53.110947,43.524519 97.399329,35.193251 157.53877,23.880176 178.34469,20.394921 179.58682,21.425802 180.87976,22.498843 181.25,28.990404 181.25,50.58707 l 0,27.780959 14.0625,0.810301 c 7.73437,0.445665 33.62916,0.812859 57.54397,0.815985 47.69894,0.0062 47.63557,-0.0031 51.58242,7.629235 2.74637,5.310909 2.69382,138.29361 -0.0568,143.61265 -3.93502,7.60947 -3.27959,7.51326 -51.22278,7.51949 -24.0814,0.003 -50.11249,0.37031 -57.84686,0.81598 l -14.0625,0.8103 0,27.68402 c 0,27.45378 -0.48343,30.88186 -4.3125,30.58082 -0.72187,-0.0568 -37.03275,-6.94738 -80.690827,-15.3125 z M 293.75,168.59942 l 0,-57.65058 -5.3125,4.29359 c -25.98301,20.99959 -70.75589,56.64943 -72.53274,57.75327 -1.74321,1.08295 -3.27353,0.77502 -7.12265,-1.4332 -2.69632,-1.54688 -5.21283,-2.8125 -5.59226,-2.8125 -0.99411,0 -0.85316,55.67002 0.14349,56.66666 0.45832,0.45834 20.98957,0.83334 45.625,0.83334 l 44.79166,0 0,-57.65058 z M 108.83801,200.3125 c 12.50326,-6.33334 19.52063,-19.37726 20.81858,-38.69765 1.25207,-18.63775 -3.37804,-32.9113 -13.78885,-42.50764 -16.786259,-15.47304 -44.500904,-7.511 -53.402044,15.34168 -3.955302,10.1548 -4.96302,32.54988 -1.89612,42.13861 3.931656,12.29242 12.13617,21.62794 22.414977,25.5049 7.350416,2.77244 18.363027,2.01426 25.853457,-1.7799 z M 84.235702,186.36904 c -8.342645,-5.0872 -12.208296,-14.55317 -12.147468,-29.74595 0.03508,-8.76177 0.567638,-11.30544 3.663906,-17.5 8.602468,-17.21056 25.58651,-17.53571 33.84889,-0.64802 3.04879,6.23152 3.47402,8.54523 3.49149,18.9978 0.0172,10.31625 -0.42608,12.85544 -3.32713,19.0568 -5.35189,11.44032 -16.106714,15.58532 -25.529687,9.83937 z M 253.93777,126.72395 C 275.8345,109.10962 293.75,94.196356 293.75,93.583358 c 0,-0.63826 -19.36359,-0.974338 -45.3125,-0.78645 L 203.125,93.125 l -0.33608,28.47963 -0.33607,28.47963 4.71107,4.3269 c 2.59109,2.37979 5.21745,4.32958 5.83636,4.33286 0.6189,0.004 19.04077,-14.40575 40.9375,-32.02007 z"
         style="fill:#abcce7" />
      <path
         inkscape:connector-curvature="0"
         id="path3368"
         d="M 96.25,282.38074 C 53.28125,274.18887 17.421875,267.2259 16.5625,266.90745 14.271228,266.05841 14.271228,52.683489 16.5625,51.859912 21.139644,50.2147 177.82058,21.300582 178.81804,21.917049 179.50507,22.341664 180,34.655097 180,51.323771 L 180,80 l 55.3125,0.007 c 34.07625,0.0042 57.0915,0.501058 59.94612,1.29388 2.68502,0.745715 5.70763,2.795203 7.1875,4.873493 C 304.94445,89.682916 305,91.275079 305,159.375 c 0,68.09992 -0.0555,69.69209 -2.55388,73.20066 -1.47987,2.07829 -4.50248,4.12778 -7.1875,4.87349 -2.85448,0.79279 -25.86263,1.28959 -59.92308,1.29387 l -55.28947,0.007 -0.33553,29.0625 c -0.32374,28.04075 -0.42343,29.06954 -2.83554,29.26252 -1.375,0.11 -37.65625,-6.50242 -80.625,-14.69428 z M 295,168.75 c 0,-40.40728 -0.41209,-58.75 -1.31989,-58.75 -0.72594,0 -18.43731,13.79607 -39.35859,30.65794 -20.92128,16.86186 -38.89557,30.98673 -39.94287,31.38862 -1.05826,0.4061 -3.80496,-0.71911 -6.183,-2.53294 -2.35336,-1.79498 -4.87888,-3.26362 -5.61225,-3.26362 -1.48088,0 -1.96879,58.94795 -0.50006,60.41666 0.45832,0.45834 21.55207,0.83334 46.875,0.83334 l 46.04166,0 0,-58.75 z m -186.875,33.26586 c 14.69731,-6.95997 23.125,-23.56562 23.125,-45.56476 0,-19.51721 -8.51275,-36.73941 -21.4725,-43.44116 -6.06731,-3.13753 -16.922409,-3.65395 -25.344021,-1.20572 -9.667421,2.8104 -19.062192,11.96636 -23.199214,22.60952 -3.973226,10.22177 -4.915776,30.84621 -1.890687,41.37117 3.891423,13.53913 12.624337,23.70404 23.781422,27.68101 6.858689,2.44482 18.15939,1.78934 25,-1.45006 z M 84.244034,185.1241 c -5.395328,-3.29 -8.7881,-9.36143 -10.481554,-18.75695 -2.652925,-14.71883 2.018676,-31.33201 10.21584,-36.32966 6.364571,-3.88035 13.714484,-3.38934 19.02205,1.27076 6.44497,5.65876 8.88496,13.24888 8.8217,27.44175 -0.0471,10.55909 -0.43647,12.57736 -3.5141,18.21324 -1.90365,3.48603 -5.06037,7.28291 -7.01494,8.4375 -4.701908,2.77749 -12.241083,2.65515 -17.048996,-0.27664 z M 254.6557,128.10156 c 24.33801,-19.54576 39.87476,-32.863404 40.12075,-34.390297 0.39577,-2.456693 -0.25711,-2.487242 -46.25,-2.164066 L 201.875,91.875 l -0.33584,29.18622 -0.33585,29.18622 4.87629,4.87627 c 2.68195,2.68196 5.7719,4.87629 6.86655,4.87629 1.09464,0 19.86394,-14.3543 41.70955,-31.89844 z"
         style="fill:#b2b4b6" />
      <path
         inkscape:connector-curvature="0"
         id="path3366"
         d="M 96.25,282.38074 C 53.28125,274.18887 17.421875,267.2259 16.5625,266.90745 14.271228,266.05841 14.271228,52.683489 16.5625,51.859912 21.139644,50.2147 177.82058,21.300582 178.81804,21.917049 179.50507,22.341664 180,34.655097 180,51.323771 L 180,80 l 55.3125,0.007 c 34.07625,0.0042 57.0915,0.501058 59.94612,1.29388 2.68502,0.745715 5.70763,2.795203 7.1875,4.873493 C 304.94445,89.682916 305,91.275079 305,159.375 c 0,68.09992 -0.0555,69.69209 -2.55388,73.20066 -1.47987,2.07829 -4.50248,4.12778 -7.1875,4.87349 -2.85448,0.79279 -25.86263,1.28959 -59.92308,1.29387 l -55.28947,0.007 -0.33553,29.0625 c -0.32374,28.04075 -0.42343,29.06954 -2.83554,29.26252 -1.375,0.11 -37.65625,-6.50242 -80.625,-14.69428 z M 295,168.75 c 0,-40.12851 -0.41524,-58.75 -1.31005,-58.75 -0.72053,0 -18.77161,14.0625 -40.11354,31.25 -21.34191,17.1875 -39.49972,31.25 -40.35069,31.25 -0.85096,0 -7.8018,-5.01117 -15.4463,-11.13596 -7.64451,-6.12478 -14.49092,-11.50173 -15.21426,-11.94877 -0.9096,-0.56216 -1.31516,11.35209 -1.31516,38.63595 l 0,39.44878 56.875,0 56.875,0 0,-58.75 z m -186.875,33.26586 c 14.69731,-6.95997 23.125,-23.56562 23.125,-45.56476 0,-19.51721 -8.51275,-36.73941 -21.4725,-43.44116 -6.06731,-3.13753 -16.922409,-3.65395 -25.344021,-1.20572 -9.667421,2.8104 -19.062192,11.96636 -23.199214,22.60952 -3.973226,10.22177 -4.915776,30.84621 -1.890687,41.37117 3.891423,13.53913 12.624337,23.70404 23.781422,27.68101 6.858689,2.44482 18.15939,1.78934 25,-1.45006 z M 84.244034,185.1241 c -5.395328,-3.29 -8.7881,-9.36143 -10.481554,-18.75695 -2.652925,-14.71883 2.018676,-31.33201 10.21584,-36.32966 6.364571,-3.88035 13.714484,-3.38934 19.02205,1.27076 6.44497,5.65876 8.88496,13.24888 8.8217,27.44175 -0.0471,10.55909 -0.43647,12.57736 -3.5141,18.21324 -1.90365,3.48603 -5.06037,7.28291 -7.01494,8.4375 -4.701908,2.77749 -12.241083,2.65515 -17.048996,-0.27664 z M 254.6557,128.10156 C 278.81861,108.69642 294.53144,95.233165 294.77444,93.726566 295.16771,91.288199 294.29529,91.25 238.21194,91.25 l -56.96194,0 0,21.83421 0,21.83421 15.13468,12.54079 C 204.70875,154.35665 212.28819,160 213.22787,160 c 0.9397,0 19.58222,-14.3543 41.42783,-31.89844 z"
         style="fill:#8cb4d5" />
      <path
         inkscape:connector-curvature="0"
         id="path3364"
         d="M 94.375,281.3971 C 52.4375,273.38282 17.421875,266.38171 16.5625,265.83907 15.33262,265.06249 15,242.37732 15,159.27442 L 15,53.696402 17.8125,52.4986 C 20.892329,51.186946 172.51836,22.5 176.37134,22.5 c 2.26735,0 2.37866,1.308932 2.37866,27.971944 0,21.611652 0.37432,28.28261 1.64626,29.338218 1.1246,0.933335 19.93042,1.476954 59.34752,1.715557 l 57.70125,0.349281 3.46498,3.465909 3.46499,3.46591 0,70.699131 0,70.69913 -4.08223,3.64746 -4.08221,3.64746 -57.23029,0 c -42.84576,0 -57.60728,0.37701 -58.73027,1.5 -1.07698,1.07697 -1.5,9.36111 -1.5,29.375 l 0,27.875 -4.0625,-0.14075 c -2.23438,-0.0774 -38.375,-6.69787 -80.3125,-14.71215 z M 294.75,227.25 c 2.36206,-2.36206 2.14633,-118.5 -0.22013,-118.5 -0.94607,0 -19.21881,14.0625 -40.60608,31.25 -21.38728,17.1875 -39.64764,31.25 -40.57859,31.25 -1.87561,0 -6.25498,-3.07955 -20.88679,-14.6875 -5.41621,-4.29688 -10.44308,-7.8125 -11.17083,-7.8125 -0.90974,0 -1.21998,12.20575 -0.99289,39.0625 l 0.33031,39.0625 11.25,0.70129 c 6.1875,0.38571 31.52813,0.80758 56.3125,0.9375 33.65172,0.1764 45.44234,-0.14363 46.5625,-1.26379 z M 109.96433,201.48915 c 8.60513,-4.28858 15.14705,-12.673 18.83349,-24.13789 2.32303,-7.22463 2.64869,-10.61099 2.23277,-23.21729 -0.42804,-12.97322 -0.91844,-15.70386 -4.05307,-22.56832 -3.94044,-8.6291 -11.87689,-16.8566 -19.21985,-19.92469 -5.15606,-2.15434 -17.439508,-2.39615 -23.898871,-0.47048 -15.196786,4.53049 -25.712712,21.18818 -27.189626,43.06956 -2.527378,37.44462 24.640091,61.53008 53.295157,47.24911 z M 86.806659,186.36534 c -4.688701,-2.01569 -10.193635,-9.6415 -11.80309,-16.35046 -2.202564,-9.18132 -1.095512,-24.3224 2.25447,-30.83422 C 84.650555,124.81082 99.977254,123.95906 107.5,137.5 c 2.82609,5.08696 3.125,7 3.125,20 0,15.75844 -1.88402,21.77879 -8.31899,26.58319 -3.620339,2.70296 -11.739614,3.89846 -15.499351,2.28215 z M 254.375,129.25977 c 22,-17.5932 40.46631,-32.809572 41.03624,-33.814154 0.61471,-1.083506 0.42532,-2.562618 -0.46555,-3.636064 -1.263,-1.521817 -8.48379,-1.786206 -45.41124,-1.662731 -24.1502,0.08075 -49.53445,0.502628 -56.40945,0.9375 l -12.5,0.790679 -0.34112,21.35561 -0.34114,21.35562 7.21614,5.69331 c 3.96886,3.13132 11.09645,9.13067 15.83906,13.33188 4.74261,4.20122 9.24261,7.638 10,7.63729 0.75738,-7.1e-4 19.37706,-14.39572 41.37706,-31.98894 z"
         style="fill:#5f9fd2" />
      <path
         inkscape:connector-curvature="0"
         id="path3362"
         d="M 97.55301,281.15811 C 54.613416,272.99623 18.754041,266.03935 17.86551,265.69839 16.562473,265.19837 16.25,244.65514 16.25,159.488 16.25,101.41325 16.677927,53.633069 17.200949,53.309824 18.224439,52.677272 169.80181,23.997095 175,23.452435 l 3.125,-0.327435 0.625,28.75 0.625,28.75 58.35674,0.625 58.35673,0.625 3.83077,3.671364 3.83076,3.671363 -0.0398,70.078633 c -0.0301,53.17784 -0.407,70.53083 -1.5625,71.95364 -4.66125,5.73951 -3.1301,5.59121 -64.52598,6.25 l -58.24677,0.625 -0.625,28.64716 c -0.38291,17.551 -1.10918,28.75922 -1.875,28.93645 -0.6875,0.1591 -36.3824,-6.38862 -79.32199,-14.5505 z M 295.9495,167.8125 C 296.169,127.01809 295.857,107.5 294.98524,107.5 c -0.70883,0 -18.26779,13.64063 -39.01993,30.3125 -20.75213,16.67187 -38.9124,30.97651 -40.35613,31.78808 -2.28103,1.28222 -3.77325,0.70897 -11.38849,-4.375 -4.81994,-3.21782 -11.61633,-8.24121 -15.10309,-11.16308 -3.48675,-2.92188 -6.96461,-5.3125 -7.72858,-5.3125 -0.98926,0 -1.38902,11.31805 -1.38902,39.32634 l 0,39.32632 10.9375,0.42399 c 6.01562,0.2332 32.03125,0.39572 57.8125,0.36117 l 46.875,-0.0629 0.3245,-60.3125 z m -190.82353,37.00243 c 10.03357,-3.38876 19.30935,-13.15698 23.8558,-25.12227 1.39215,-3.66385 2.77329,-11.23259 3.1716,-17.38072 1.60715,-24.80662 -7.36276,-44.04228 -23.84385,-51.13225 -7.97278,-3.42979 -21.222275,-2.97178 -28.93452,1.00022 -10.250651,5.27935 -17.978135,15.53843 -21.425807,28.44509 -2.268294,8.49156 -2.165074,28.60245 0.187463,36.52431 3.61893,12.18625 13.626615,23.60426 23.897714,27.26548 5.961146,2.1249 17.398075,2.32307 23.0916,0.40013 z M 84.632317,184.02924 c -1.920974,-1.18483 -4.96785,-5.16407 -6.770833,-8.84274 -4.330927,-8.8365 -4.684264,-25.1658 -0.734325,-33.9365 3.986917,-8.85281 8.058368,-11.875 15.997841,-11.875 8.03746,0 11.89879,2.97159 15.26926,11.75084 3.04228,7.92438 3.01817,24.95844 -0.0466,32.90111 -4.29537,11.13204 -14.740936,15.5376 -23.715375,10.00229 z M 256.63579,128.10405 c 32.55097,-26.24849 39.69083,-32.553461 39.375,-34.770703 -0.38407,-2.696252 -0.54768,-2.710097 -36.63579,-3.100107 -19.9375,-0.215468 -45.95313,-0.01438 -57.8125,0.446864 L 180,91.518727 l 0,21.512403 0,21.51239 10.625,8.5451 c 5.84375,4.6998 10.625,8.94602 10.625,9.43602 0,0.49001 2.60102,2.91737 5.78006,5.39413 4.26803,3.32519 6.31175,4.20818 7.8125,3.37542 1.11784,-0.62029 19.92479,-15.55585 41.79323,-33.19014 z"
         style="fill:#4f89b9" />
      <path
         inkscape:connector-curvature="0"
         id="path3360"
         d="M 95.625,280.15839 C 53.6875,272.14896 18.671875,265.1473 17.8125,264.59913 16.582941,263.81482 16.25,241.37196 16.25,159.27442 l 0,-104.328018 2.8125,-1.203821 C 21.55203,52.676999 173.17322,23.75 176.26896,23.75 c 0.77125,0 1.23104,10.411204 1.23104,27.875 0,20.013889 0.42303,28.29802 1.5,29.375 1.12256,1.122565 15.7638,1.5 58.18707,1.5 62.52497,0 62.51052,-0.0018 65.17741,7.648549 1.93251,5.543595 1.93251,132.909301 0,138.452901 -2.66689,7.65025 -2.65244,7.64855 -65.17741,7.64855 -42.42327,0 -57.06451,0.37744 -58.18707,1.5 -1.07698,1.07697 -1.5,9.36111 -1.5,29.375 l 0,27.875 -2.8125,-0.13951 c -1.54688,-0.0768 -37.125,-6.69268 -79.0625,-14.7021 z M 296,228.5 c 1.12485,-1.12485 1.5,-16.45316 1.5,-61.28923 0,-51.10443 -0.26355,-59.89036 -1.81434,-60.48546 -1.13339,-0.43492 -16.05972,10.78141 -39.77001,29.885 -20.87563,16.81969 -39.09929,31.29545 -40.49705,32.16837 -2.24792,1.40384 -3.3931,0.95274 -9.91749,-3.90663 -4.05686,-3.02155 -11.00118,-8.4476 -15.43182,-12.05789 -8.54848,-6.96569 -10.59303,-7.75974 -11.81055,-4.58692 -1.11314,2.90078 -0.88952,77.13177 0.23771,78.9053 1.23031,1.93573 10.78125,2.29708 69.06605,2.61302 C 282.69294,229.936 294.87732,229.62269 296,228.5 Z M 104.65168,205.61264 c 13.92805,-4.13619 25.28431,-19.65063 27.89768,-38.11264 3.46086,-24.44915 -5.09498,-46.67317 -21.39629,-55.57735 -13.417794,-7.32914 -31.692455,-4.02251 -42.486373,7.68751 -20.165477,21.87695 -17.352387,66.31598 5.140199,81.20086 9.467365,6.2652 20.259249,7.94518 30.844784,4.80162 z M 86.256704,184.10442 c -2.647315,-1.35109 -5.601741,-4.44551 -7.499096,-7.85442 -2.757101,-4.95359 -3.130907,-7.11703 -3.131703,-18.125 -7.61e-4,-10.51825 0.454721,-13.42491 2.872979,-18.33396 3.490259,-7.08519 7.519731,-9.92729 14.20552,-10.01957 10.521766,-0.14521 16.254126,8.33209 17.059576,25.22853 0.61981,13.00195 -1.15451,20.11719 -6.40171,25.67165 -5.037845,5.33287 -11.027376,6.53485 -17.105566,3.43277 z M 256.25,129.62882 c 26.60502,-21.45024 40.75366,-33.654336 40.99782,-35.363201 0.83032,-5.81138 0.12916,-5.872714 -60.47385,-5.289965 -47.77235,0.459371 -57.14791,0.838077 -58.14177,2.348516 -0.66393,1.009002 -1.03594,11.02416 -0.84608,22.77717 l 0.33888,20.97633 4.37136,3.39867 c 2.40425,1.86926 9.71675,8.02225 16.25,13.67329 6.53325,5.65104 13.00364,10.26527 14.37864,10.25383 1.38214,-0.0112 20.66531,-14.66656 43.125,-32.77463 z"
         style="fill:#006dc2" />
      <path
         inkscape:connector-curvature="0"
         id="path3358"
         d="m 178.74941,235.46875 c 3.3e-4,-0.77344 -0.32802,-3.30469 -0.72965,-5.625 -0.5265,-3.04168 -0.37762,-3.7163 0.53356,-2.41793 1.76142,2.50988 114.1026,3.78829 117.06209,1.33214 2.78743,-2.31336 2.85574,-120.96376 0.0702,-122.03265 -1.13339,-0.43492 -16.05972,10.78141 -39.77001,29.885 -20.87563,16.81969 -39.09929,31.29545 -40.49705,32.16837 -2.24793,1.40384 -3.3931,0.95274 -9.91749,-3.90663 -4.05686,-3.02155 -11.00119,-8.4476 -15.43182,-12.05789 -8.15747,-6.64707 -10.71058,-7.76529 -11.60478,-5.08269 -0.27161,0.81482 -0.52359,-2.41956 -0.55996,-7.1875 -0.0364,-4.76793 0.2796,-7.77162 0.70216,-6.67486 0.42255,1.09676 5.83079,6.23872 12.01829,11.42657 6.1875,5.18784 13.21875,11.15826 15.625,13.26758 2.40625,2.10933 5.5,3.83159 6.875,3.82726 3.61145,-0.0113 83.65211,-64.830431 84.12282,-68.124901 0.83032,-5.81138 0.12916,-5.872714 -60.47385,-5.289965 -47.72366,0.458902 -57.16171,0.839617 -58.22065,2.348516 -0.91118,1.298379 -1.06006,0.623751 -0.53356,-2.41792 0.40163,-2.320313 0.72998,-4.851563 0.72965,-5.625 -8.7e-4,-2.082596 115.84709,-0.745536 119.55661,1.379864 5.18805,2.972543 5.44398,6.484843 5.44398,74.713886 0,68.22904 -0.25593,71.74134 -5.44397,74.71389 -3.70953,2.1254 -119.55749,3.46246 -119.55662,1.37986 z"
         style="fill:#0c65ad" />
    </g>
  </g>
</svg>
