<?xml version="1.0" encoding="UTF-8" standalone="no"?>
<!-- Created with Inkscape (http://www.inkscape.org/) -->

<svg
   xmlns:dc="http://purl.org/dc/elements/1.1/"
   xmlns:cc="http://creativecommons.org/ns#"
   xmlns:rdf="http://www.w3.org/1999/02/22-rdf-syntax-ns#"
   xmlns:svg="http://www.w3.org/2000/svg"
   xmlns="http://www.w3.org/2000/svg"
   xmlns:sodipodi="http://sodipodi.sourceforge.net/DTD/sodipodi-0.dtd"
   xmlns:inkscape="http://www.inkscape.org/namespaces/inkscape"
   id="svg2"
   version="1.1"
   inkscape:version="0.91 r13725"
   width="16"
   height="16"
   viewBox="0 0 16 16"
   sodipodi:docname="system-file-manager-symbolic.svg">
  <metadata
     id="metadata8">
    <rdf:RDF>
      <cc:Work
         rdf:about="">
        <dc:format>image/svg+xml</dc:format>
        <dc:type
           rdf:resource="http://purl.org/dc/dcmitype/StillImage" />
        <dc:title></dc:title>
      </cc:Work>
    </rdf:RDF>
  </metadata>
  <defs
     id="defs6" />
  <sodipodi:namedview
     pagecolor="#ffffff"
     bordercolor="#666666"
     borderopacity="1"
     objecttolerance="10"
     gridtolerance="10"
     guidetolerance="10"
     inkscape:pageopacity="0"
     inkscape:pageshadow="2"
     inkscape:window-width="857"
     inkscape:window-height="480"
     id="namedview4"
     showgrid="false"
     inkscape:zoom="10.429825"
     inkscape:cx="23.039681"
     inkscape:cy="4.8503354"
     inkscape:window-x="247"
     inkscape:window-y="77"
     inkscape:window-maximized="0"
     inkscape:current-layer="svg2" />
  <g
     id="g4215">
    <rect
       y="2.881356"
       x="2.4745762"
       height="0.41525424"
       width="1.940678"
       id="rect3393"
       style="fill:#ffffff;fill-rule:evenodd;stroke:#ffffff;stroke-width:1px;stroke-linecap:butt;stroke-linejoin:miter;stroke-opacity:1" />
    <path
       style="fill:#fde692"
       d="m 3.30177,13.600325 c 0,-0.380997 -0.00144,-0.38161 -0.8966338,-0.381866 C 1.7012221,13.218258 1.5558426,13.20078 1.3843792,13.095735 0.98872673,12.853344 1.0073017,13.107721 0.98245363,7.591546 0.95989673,2.58401 0.96039486,2.5596927 1.0891359,2.3833186 1.3753795,1.9911675 1.408245,1.986698 4.0063696,1.9865906 c 1.9475399,-8.03e-5 2.398427,0.016203 2.5819462,0.093247 0.122292,0.05134 0.4829683,0.3337134 0.8015024,0.6274972 l 0.5791531,0.5341524 3.1965717,0 c 3.527736,0 3.447458,-0.00859 3.692518,0.3952322 0.117847,0.1941938 0.121911,0.3473057 0.121911,4.5933709 0,4.2460657 -0.0041,4.3991777 -0.121911,4.5933707 -0.204622,0.337189 -0.396165,0.395233 -1.304253,0.395233 -0.881471,0 -0.884122,0.0011 -0.884122,0.381631 l 0,0.183116 -1.186602,0 -1.186603,0 0,-0.183116 c 0,-0.405406 0.143959,-0.381631 -2.3107529,-0.381631 -2.4547123,0 -2.3107527,-0.02377 -2.3107527,0.381631 l 0,0.183116 -1.1866027,0 -1.1866027,0 0,-0.183116 z m 1.4364138,-10.3588374 0,-0.2509989 -1.0929236,0 -1.0929235,0 0,0.2509989 0,0.2509989 1.0929235,0 1.0929236,0 0,-0.2509989 z"
       id="path3352"
       inkscape:connector-curvature="0" />
    <path
       style="fill:#b6d3ae"
       d="m 3.2716849,13.328506 c -0.022408,-0.250215 -0.031832,-1.374771 -0.020942,-2.499014 l 0.0198,-2.0440788 0.1722783,-0.2614379 C 3.537575,8.3801841 3.7322489,8.1846429 3.8754305,8.0894395 l 0.2603302,-0.1730974 3.8499674,0 3.8499679,0 0.26033,0.1730979 c 0.143181,0.095203 0.337856,0.2907441 0.432608,0.4345353 l 0.172279,0.2614379 0.0198,2.0440788 c 0.01089,1.124243 0.0015,2.248799 -0.02094,2.499014 l -0.04074,0.454935 -1.181274,0 c -0.649701,0 -1.184982,-0.0071 -1.189516,-0.01569 -0.0045,-0.0086 -0.02561,-0.778097 -0.04684,-1.70993 l -0.0386,-1.694243 -2.2170739,0 -2.2170735,0 -0.038598,1.694243 c -0.021229,0.931833 -0.042307,1.701302 -0.04684,1.70993 -0.00453,0.0086 -0.5398153,0.01569 -1.189516,0.01569 l -1.1812743,0 -0.040742,-0.454935 z M 1.0991943,4.4587575 C 1.074046,4.4334895 1.0534701,3.9911377 1.0534701,3.4757532 l 0,-0.9370625 0.2123394,-0.2133491 0.2123394,-0.2133491 2.508462,0 c 1.7866337,0 2.5477157,0.020997 2.6448747,0.072967 0.1928177,0.1031377 1.0413091,0.8760341 1.1167536,1.0172571 0.052915,0.099053 -0.0096,0.1913352 -0.3963043,0.5850352 C 7.0994133,4.0443395 6.8084933,4.3020291 6.7054462,4.3598955 6.5398809,4.4528692 6.2055897,4.4674098 3.8315032,4.4849031 2.3538817,4.4957909 1.1243427,4.4840251 1.0991943,4.4587575 Z M 4.788146,3.5426863 c 0.096956,-0.097417 0.096956,-0.5049806 0,-0.6023974 -0.052595,-0.052846 -0.4017795,-0.0753 -1.1709895,-0.0753 l -1.0960462,0 0,0.3764984 0,0.3764983 1.0960462,0 c 0.76921,0 1.118394,-0.022454 1.1709895,-0.0753 z"
       id="path3350"
       inkscape:connector-curvature="0" />
    <path
       style="fill:#f9d558"
       d="M 3.3031416,11.383264 C 3.3046559,8.7329555 3.3098904,8.6939638 3.715451,8.3118566 4.1092873,7.9407954 4.0281207,7.947717 7.9857281,7.947717 c 3.9576069,0 3.8764409,-0.00692 4.2702769,0.3641396 0.40556,0.3821072 0.410795,0.4210989 0.41231,3.0714074 l 0.0014,2.400177 -1.185615,0 -1.185615,0 -0.0166,-1.741304 -0.0166,-1.741305 -2.2795264,0 -2.2795263,0 -0.016601,1.741305 -0.016602,1.741304 -1.1856147,0 -1.1856147,0 0.00137,-2.400177 z M 1.0991943,4.4587575 C 1.074046,4.4334895 1.0534701,3.9911377 1.0534701,3.4757532 l 0,-0.9370625 0.2123394,-0.2133491 0.2123394,-0.2133491 2.508462,0 c 1.7866337,0 2.5477157,0.020997 2.6448747,0.072967 0.1928177,0.1031377 1.0413091,0.8760341 1.1167536,1.0172571 0.052915,0.099053 -0.0096,0.1913352 -0.3963043,0.5850352 C 7.0994133,4.0443395 6.8084933,4.3020291 6.7054462,4.3598955 6.5398809,4.4528692 6.2055897,4.4674098 3.8315032,4.4849031 2.3538817,4.4957909 1.1243427,4.4840251 1.0991943,4.4587575 Z M 4.7774277,3.5485507 C 4.8884385,3.4559817 4.8883098,3.026886 4.7772428,2.9342708 4.6630124,2.8390171 1.9975507,2.8435439 1.882854,2.9391863 c -0.099273,0.082781 -0.1052136,0.5028176 -0.00849,0.600005 0.099939,0.100414 2.7834891,0.1090656 2.9030594,0.00936 z M 1.8916108,3.4707212 C 1.8723304,3.4202384 1.8655615,3.2844746 1.876569,3.169024 1.8960162,2.9650538 1.9045352,2.9591138 2.17762,2.9591138 l 0.2810375,0 0,0.2823738 0,0.2823738 -0.2659956,0.019323 c -0.1891745,0.013743 -0.27612,-0.00719 -0.3010511,-0.072464 z"
       id="path3348"
       inkscape:connector-curvature="0" />
    <path
       style="fill:#7bc5ce"
       d="M 3.3031416,11.383264 C 3.3046559,8.7329555 3.3098904,8.6939638 3.715451,8.3118566 4.1092873,7.9407954 4.0281207,7.947717 7.9857281,7.947717 c 3.9576069,0 3.8764409,-0.00692 4.2702769,0.3641396 0.40556,0.3821072 0.410795,0.4210989 0.41231,3.0714074 l 0.0014,2.400177 -1.185615,0 -1.185615,0 -0.0166,-1.741304 -0.0166,-1.741305 -2.2795264,0 -2.2795263,0 -0.016601,1.741305 -0.016602,1.741304 -1.1856147,0 -1.1856147,0 0.00137,-2.400177 z M 1.1159228,3.5268139 c 0,-0.92625 0.049693,-1.1215206 0.3213211,-1.262653 0.2540995,-0.1320247 4.9756216,-0.1319704 5.2244639,6.02e-5 0.092754,0.049213 0.3646637,0.2892788 0.6042436,0.5334788 l 0.4355991,0.444 -0.497917,0.5032364 C 6.8739513,4.0781398 6.6318149,4.2688019 6.4869964,4.3092278 c -0.1254072,0.035007 -1.3178,0.061204 -2.7948966,0.061405 l -2.576177,3.497e-4 0,-0.8441687 z m 3.734676,0.078622 c 0.097164,-0.097627 0.097164,-0.6302703 0,-0.7278968 -0.053893,-0.054149 -0.4736498,-0.0753 -1.4944057,-0.0753 -1.5961636,0 -1.6157425,0.00532 -1.6157425,0.4392481 0,0.4339254 0.019579,0.4392481 1.6157425,0.4392481 1.0207559,0 1.4405129,-0.021151 1.4944057,-0.0753 z M 1.8916108,3.4707212 C 1.8723304,3.4202384 1.8655615,3.2844746 1.876569,3.169024 1.8960162,2.9650538 1.9045352,2.9591138 2.17762,2.9591138 l 0.2810375,0 0,0.2823738 0,0.2823738 -0.2659956,0.019323 c -0.1891745,0.013743 -0.27612,-0.00719 -0.3010511,-0.072464 z"
       id="path3346"
       inkscape:connector-curvature="0" />
    <path
       style="fill:#fad03e"
       d="m 3.3642228,11.365561 c 0,-1.9837724 0.015241,-2.3917806 0.09666,-2.5875693 0.1289446,-0.310075 0.3192146,-0.5087261 0.621547,-0.6489255 0.233855,-0.1084441 0.483168,-0.1158435 3.9032984,-0.1158435 3.4201308,0 3.6694428,0.0074 3.9032988,0.1158435 0.302332,0.1401994 0.492602,0.3388505 0.621547,0.6489255 0.08142,0.1957887 0.09666,0.6037969 0.09666,2.5875693 l 0,2.355131 -1.123162,0 -1.123161,0 -0.0166,-1.741305 -0.0166,-1.741305 -2.3419788,0 -2.3419791,0 -0.016601,1.741305 -0.016602,1.741305 -1.1231619,0 -1.1231619,0 0,-2.355131 z m -2.2483,-7.8387471 c 0,-0.92625 0.049693,-1.1215206 0.3213211,-1.262653 0.2540995,-0.1320247 4.9756216,-0.1319704 5.2244639,6.02e-5 0.092754,0.049213 0.3646637,0.2892788 0.6042436,0.5334788 l 0.4355991,0.444 -0.497917,0.5032364 C 6.8739513,4.0781398 6.6318149,4.2688019 6.4869964,4.3092278 c -0.1254072,0.035007 -1.3178,0.061204 -2.7948966,0.061405 l -2.576177,3.497e-4 0,-0.8441687 z m 3.734676,0.078622 c 0.097164,-0.097627 0.097164,-0.6302703 0,-0.7278968 -0.053893,-0.054149 -0.4736498,-0.0753 -1.4944057,-0.0753 -1.5961636,0 -1.6157425,0.00532 -1.6157425,0.4392481 0,0.4339254 0.019579,0.4392481 1.6157425,0.4392481 1.0207559,0 1.4405129,-0.021151 1.4944057,-0.0753 z M 1.9278089,3.2414876 c 0,-0.2509989 0,-0.2509989 0.2498111,-0.2509989 0.2498111,0 0.2498111,0 0.2498111,0.2509989 0,0.2509989 0,0.2509989 -0.2498111,0.2509989 -0.2498111,0 -0.2498111,0 -0.2498111,-0.2509989 z"
       id="path3344"
       inkscape:connector-curvature="0" />
    <path
       style="fill:#4db8dd"
       d="m 3.3642228,11.365561 c 0,-1.9837724 0.015241,-2.3917806 0.09666,-2.5875693 0.1289446,-0.310075 0.3192146,-0.5087261 0.621547,-0.6489255 0.233855,-0.1084441 0.483168,-0.1158435 3.9032984,-0.1158435 3.4201308,0 3.6694428,0.0074 3.9032988,0.1158435 0.302332,0.1401994 0.492602,0.3388505 0.621547,0.6489255 0.08142,0.1957887 0.09666,0.6037969 0.09666,2.5875693 l 0,2.355131 -1.123162,0 -1.123161,0 -0.0166,-1.741305 -0.0166,-1.741305 -2.3419788,0 -2.3419791,0 -0.016601,1.741305 -0.016602,1.741305 -1.1231619,0 -1.1231619,0 0,-2.355131 z M 1.9278089,3.2414876 c 0,-0.2509989 0,-0.2509989 0.2498111,-0.2509989 0.2498111,0 0.2498111,0 0.2498111,0.2509989 0,0.2509989 0,0.2509989 -0.2498111,0.2509989 -0.2498111,0 -0.2498111,0 -0.2498111,-0.2509989 z"
       id="path3342"
       inkscape:connector-curvature="0" />
    <path
       style="fill:#38b3e4"
       d="M 3.4401654,11.253082 3.4579019,8.8482212 3.6255262,8.5938203 C 3.7264453,8.4406567 3.9020478,8.2864525 4.0668003,8.2063181 4.3360779,8.0753429 4.3986926,8.0732164 7.9857281,8.0732164 c 3.5870359,0 3.6496499,0.00213 3.9189279,0.1331017 0.164752,0.080134 0.340355,0.2343386 0.441274,0.3875022 l 0.167624,0.2544009 0.01774,2.4048608 0.01774,2.40486 -1.06382,0 -1.063821,0 0,-1.681693 c 0,-1.224317 -0.02038,-1.702172 -0.07494,-1.756992 -0.107502,-0.108013 -4.6139281,-0.108013 -4.7214298,0 -0.054561,0.05482 -0.074943,0.532675 -0.074943,1.756992 l 0,1.681693 -1.0638205,0 -1.0638206,0 0.017737,-2.40486 z M 1.9902617,3.2414876 c 0,-0.1673326 0.020818,-0.1882492 0.1873583,-0.1882492 0.1665408,0 0.1873584,0.020917 0.1873584,0.1882492 0,0.1673326 -0.020818,0.1882492 -0.1873584,0.1882492 -0.1665407,0 -0.1873583,-0.020917 -0.1873583,-0.1882492 z"
       id="path3340"
       inkscape:connector-curvature="0" />
  </g>
</svg>
